<?xml version="1.0" standalone="no"?>
<!DOCTYPE svg PUBLIC "-//W3C//DTD SVG 20010904//EN"
 "http://www.w3.org/TR/2001/REC-SVG-20010904/DTD/svg10.dtd">
<svg version="1.0" xmlns="http://www.w3.org/2000/svg"
 width="500.000000pt" height="500.000000pt" viewBox="0 0 500.000000 500.000000"
 preserveAspectRatio="xMidYMid meet">
<metadata>
Created by potrace 1.14, written by Peter Selinger 2001-2017
</metadata>
<g transform="translate(0.000000,500.000000) scale(0.100000,-0.100000)"
fill="#000000" stroke="none">
<path d="M1665 3442 c-44 -6 -57 -19 -43 -46 6 -11 16 -24 22 -28 6 -4 -5 -8
-24 -8 -49 0 -131 -41 -178 -88 -98 -98 -116 -354 -35 -517 25 -50 97 -125
121 -125 6 0 12 -4 12 -10 0 -5 7 -10 15 -10 8 0 15 -4 15 -9 0 -4 -10 -7 -23
-6 -45 5 -132 -51 -149 -96 -5 -14 -27 -17 -125 -21 -128 -4 -161 -15 -188
-67 -21 -42 -23 -79 -10 -186 7 -55 16 -129 19 -165 4 -36 9 -81 11 -100 3
-19 7 -55 10 -80 3 -25 8 -65 11 -90 3 -25 6 -61 8 -80 l3 -35 1393 -3 c967
-1 1396 1 1400 8 6 9 6 89 1 123 -1 4 -37 7 -80 7 l-79 0 11 30 c8 21 18 30
34 30 66 0 108 62 79 118 -16 30 -56 51 -90 46 -14 -2 -17 2 -13 22 2 13 0 27
-6 31 -5 3 -75 6 -156 5 l-146 0 0 -118 c0 -66 4 -129 8 -141 8 -23 8 -23 -92
-23 l-100 0 -3 33 c-3 30 -5 32 -48 35 l-45 3 2 121 c1 66 3 122 5 123 2 2
119 5 261 7 l259 3 27 31 c29 33 36 60 46 189 3 39 8 86 10 105 3 19 8 67 11
105 4 39 8 81 9 95 2 14 6 59 10 100 4 41 8 86 10 100 32 317 30 351 -21 370
-16 6 -310 10 -777 10 -734 0 -753 -1 -785 -20 -40 -24 -49 -48 -57 -142 -4
-40 -8 -86 -10 -103 -1 -16 -6 -66 -10 -110 -4 -44 -8 -91 -10 -105 -2 -14 -7
-59 -11 -100 -4 -41 -9 -83 -10 -92 -1 -10 -2 -32 -3 -49 l-1 -31 -46 45 c-25
25 -60 49 -78 53 -17 4 -34 9 -38 10 -5 1 -10 2 -13 3 -3 0 10 15 29 32 19 17
45 46 56 64 12 19 26 32 33 30 7 -3 20 2 30 10 21 15 19 63 -2 104 -7 12 -13
61 -14 109 -2 72 1 90 16 103 39 36 24 167 -29 251 -66 104 -204 188 -204 123
0 -19 1 -19 -46 1 -38 16 -130 24 -189 16z m1092 -1316 c3 -2 6 -41 6 -85 2
-71 0 -81 -17 -85 -21 -5 -149 0 -181 7 -11 3 -55 8 -99 12 l-78 8 -18 40
c-12 26 -16 47 -10 57 5 9 5 22 0 31 -7 11 -3 15 17 19 33 6 374 3 380 -4z
m1107 -138 c9 -12 16 -30 16 -40 0 -26 -33 -55 -61 -53 -23 2 -26 17 -20 103
2 21 49 14 65 -10z m-1744 -39 c0 -24 42 -99 66 -118 l27 -21 -54 0 -54 0 -3
81 c-1 51 2 78 8 74 5 -3 10 -11 10 -16z"/>
</g>
</svg>
